<?xml version="1.0" ?><!DOCTYPE svg  PUBLIC '-//W3C//DTD SVG 1.1//EN'  'http://www.w3.org/Graphics/SVG/1.1/DTD/svg11.dtd'><svg enable-background="new 0 0 26 26" id="Слой_1" version="1.1" viewBox="0 0 26 26" xml:space="preserve" xmlns="http://www.w3.org/2000/svg" xmlns:xlink="http://www.w3.org/1999/xlink"><path d="M23.25,5.0644531H2.75c-0.9648438,0-1.75,0.7851563-1.75,1.75v12.3710938  c0,0.9648438,0.7851563,1.75,1.75,1.75h20.5c0.9648438,0,1.75-0.7851563,1.75-1.75V6.8144531  C25,5.8496094,24.2148438,5.0644531,23.25,5.0644531z M2.75,6.5644531h20.5c0.1376953,0,0.25,0.1123047,0.25,0.25v2.1333008h-21  V6.8144531C2.5,6.6767578,2.6123047,6.5644531,2.75,6.5644531z M23.25,19.4355469H2.75c-0.1376953,0-0.25-0.1123047-0.25-0.25  v-7.2363281h21v7.2363281C23.5,19.3232422,23.3876953,19.4355469,23.25,19.4355469z" fill="#1D1D1B"/></svg>